<?xml version="1.0" encoding="UTF-8" standalone="no"?>
<svg
   xmlns:dc="http://purl.org/dc/elements/1.1/"
   xmlns:cc="http://creativecommons.org/ns#"
   xmlns:rdf="http://www.w3.org/1999/02/22-rdf-syntax-ns#"
   xmlns:svg="http://www.w3.org/2000/svg"
   xmlns="http://www.w3.org/2000/svg"
   viewBox="0 0 197.05067 197.05067"
   height="197.05067"
   width="197.05067"
   xml:space="preserve"
   id="svg2"
   version="1.1"><metadata
     id="metadata8"><rdf:RDF><cc:Work
         rdf:about=""><dc:format>image/svg+xml</dc:format><dc:type
           rdf:resource="http://purl.org/dc/dcmitype/StillImage" /></cc:Work></rdf:RDF></metadata><defs
     id="defs6" /><g
     transform="matrix(1.3333333,0,0,-1.3333333,0,197.05067)"
     id="g10"><path
       id="path12"
       style="fill:#00d4e6;fill-opacity:1;fill-rule:evenodd;stroke:none"
       d="M 133.214,104.533 145.706,91.7592 118.702,64.1448 147.788,34.4014 135.296,21.6274 93.719,64.1448 Z" /><path
       id="path14"
       style="fill:#000000;fill-opacity:1;fill-rule:evenodd;stroke:none"
       d="M 104.533,135.296 92.0783,147.788 63.0796,118.702 34.0809,147.788 21.6267,135.296 63.0796,93.719 Z" /><path
       id="path16"
       style="fill:#00d4e6;fill-opacity:1;fill-rule:evenodd;stroke:none"
       d="M 100.927,133.215 88.7087,145.706 62.2946,118.702 33.8445,147.788 21.626,135.296 62.2946,93.719 Z" /><path
       id="path18"
       style="fill:#8759f2;fill-opacity:1;fill-rule:evenodd;stroke:none"
       d="m 144.251,89.1537 c 3.945,3.9445 3.945,10.3398 0,14.2843 l -3.06,3.061 -34.706,0.391 -1.005,35.32 -2.041,2.041 c -3.9445,3.944 -10.3399,3.944 -14.2844,0 l 0.0156,-54.6763 z" /><path
       id="path20"
       style="fill:#584de2;fill-opacity:1;fill-rule:nonzero;stroke:none"
       d="m 105.478,136.089 0.001,6.122 -2.041,2.04 c -3.9442,3.945 -10.3396,3.945 -14.2841,0 l -6e-4,-24.487 z" /><path
       id="path22"
       style="fill:#584de2;fill-opacity:1;fill-rule:nonzero;stroke:none"
       d="m 136.087,105.478 6.122,0.001 2.04,-2.041 c 3.945,-3.9442 3.945,-10.3396 0,-14.2841 l -24.487,-6e-4 z" /><path
       id="path24"
       style="fill:#ffc300;fill-opacity:1;fill-rule:evenodd;stroke:none"
       d="M 43.2535,14.5735 56.0275,2.0819 83.6419,29.0858 113.385,0 126.159,12.4916 83.6419,54.069 Z" /><path
       id="path26"
       style="fill:#000000;fill-opacity:1;fill-rule:evenodd;stroke:none"
       d="M 12.4916,43.2555 0,55.7097 29.0858,84.7084 0,113.707 12.4916,126.161 54.069,84.7084 Z" /><path
       id="path28"
       style="fill:#ffc300;fill-opacity:1;fill-rule:evenodd;stroke:none"
       d="M 14.5735,46.8595 2.0819,59.078 29.0858,85.4922 0,113.942 12.4916,126.161 54.069,85.4922 Z" /><path
       id="path30"
       style="fill:#ff3e80;fill-opacity:1;fill-rule:evenodd;stroke:none"
       d="m 58.6357,3.5378 c -3.9446,-3.9445 -10.3399,-3.9445 -14.2844,0 l -3.0609,3.061 -0.391,34.7051 -35.32,1.0058 -2.0406,2.0406 c -3.9445,3.9445 -3.9445,10.3399 0,14.2844 l 54.6759,-0.0156 z" /><path
       id="path32"
       style="fill:#8759f2;fill-opacity:1;fill-rule:nonzero;stroke:none"
       d="m 11.6976,42.3097 -6.1216,-6e-4 -2.0406,2.0406 c -3.9445,3.9446 -3.9445,10.3399 0,14.2844 l 24.4872,6e-4 z" /><path
       id="path34"
       style="fill:#8759f2;fill-opacity:1;fill-rule:nonzero;stroke:none"
       d="m 42.3084,11.7009 -6e-4,-6.1216 2.0406,-2.0406 c 3.9445,-3.9445 10.3398,-3.9445 14.2844,0 l 6e-4,24.4872 z" /></g></svg>